<svg xmlns="http://www.w3.org/2000/svg" width="298.232" height="291" viewBox="0 0 298.232 291">
  <g id="Group_700" data-name="Group 700" transform="translate(-16059.232 -14400)">
    <rect id="Rectangle_2987" data-name="Rectangle 2987" width="5" height="289" rx="2.5" transform="translate(16107.232 14400)"/>
    <g id="Group_697" data-name="Group 697">
      <rect id="Rectangle_2974" data-name="Rectangle 2974" width="5" height="61.733" transform="translate(16150.859 14400.247) rotate(45)"/>
      <rect id="Rectangle_2966" data-name="Rectangle 2966" width="5" height="298.232" rx="2.5" transform="translate(16357.465 14686) rotate(90)"/>
      <rect id="Rectangle_2988" data-name="Rectangle 2988" width="187" height="5" rx="2.5" transform="translate(16107.232 14400)"/>
      <rect id="Rectangle_2989" data-name="Rectangle 2989" width="5" height="49" rx="2.5" transform="translate(16289.232 14401)"/>
      <g id="Group_696" data-name="Group 696">
        <rect id="Rectangle_2970" data-name="Rectangle 2970" width="5" height="56" rx="2.5" transform="translate(16289.197 14498.247) rotate(45)"/>
        <rect id="Rectangle_2967" data-name="Rectangle 2967" width="5" height="56" rx="2.5" transform="translate(16291.197 14565.247) rotate(45)"/>
        <rect id="Rectangle_2971" data-name="Rectangle 2971" width="5" height="56" rx="2.5" transform="translate(16290.732 14501.782) rotate(-45)"/>
        <path id="Path_355" data-name="Path 355" d="M5,2.5v51a2.5,2.5,0,0,1-5,0V2.5C0,1.119,5,1.119,5,2.5Z" transform="translate(16288.732 14568.783) rotate(-45)"/>
        <g id="Ellipse_32" data-name="Ellipse 32" transform="translate(16263.732 14445.247)" fill="none" stroke="none" stroke-width="5">
          <path fill="#ffa726" d="M15,27c0,2.2-1.8,4-4,4s-4-1.8-4 -4c0-2.2,1.8-4,4-4S15,24.8,15,27 M41,27c0-2.2-1.8-4-4-4 s-4,1.8-4,4c0,2.2,1.8,4,4,4S41,29.2,41,27"/>
          <path fill="#ffb74d" d="M10,19c0-12.7,28-10.3,28-2v13c0,8.3-8.2,15-14,15s-14-6.7-14-15V19z"/>
          <path fill="#424242" d="M8,19.3c0.5-6,1.7-11.9,9-13.3l2-3h5c9.2,0,16,7.5,16,18v3.4L37,28c0,0,0,0.5,0-6 c0-10.5-13.5,4.4-20-9c-0.3,5.5-6,8-6,8v7l-3-3.6V21C8,20.4,7.9,19.9,8,19.3"/>
          <path fill="#784719" d="M33,28c0,1.1-0.9,2-2,2s-2-0.9-2-2s0.9-2,2-2S33,26.9,33,28 M19,28c0-1.1-0.9-2-2-2s-2,0.9-2,2 s0.9,2,2,2S19,29.1,19,28"/>
          <path fill="#ff9100" d="M20 37H28V39H20z"/>
        </g>
        <rect id="Rectangle_2990" data-name="Rectangle 2990" width="5" height="73" rx="2.5" transform="translate(16289.232 14498)"/>
      </g>
    </g>
  </g>
</svg>
